<svg width="600" height="554" viewBox="0 0 600 554" fill="none" xmlns="http://www.w3.org/2000/svg">
<path d="M300.003 553.909C290.917 553.909 281.975 551.169 274.043 545.833C219.815 509.056 141.069 452.087 84.5339 383.149C26.8448 312.912 -0.845919 240.656 0.0194176 162.487C0.884754 72.9237 72.8519 0.0908203 160.251 0.0908203C229.622 0.0908203 275.629 42.6368 300.003 73.6448C324.376 42.6368 370.383 0.0908203 439.755 0.0908203C527.154 0.0908203 598.976 72.9237 599.986 162.487C600.707 240.656 573.161 312.912 515.471 383.149C458.936 452.087 380.191 509.056 325.963 545.833C318.031 551.313 309.089 553.909 300.003 553.909ZM160.251 46.2424C98.0909 46.2424 46.8918 98.5955 46.1707 163.063C44.5842 313.921 173.664 422.089 300.003 507.758C426.342 421.945 555.421 313.921 553.835 163.063C553.114 98.7397 502.059 46.2424 439.755 46.2424C361.874 46.2424 320.915 124.988 320.626 125.854C316.732 133.642 308.8 138.545 300.003 138.545C291.205 138.545 283.273 133.642 279.379 125.71C278.946 124.988 237.987 46.2424 160.251 46.2424Z" fill="#09121F"/>
</svg>