<svg width="135" height="19" viewBox="0 0 135 19" fill="none" xmlns="http://www.w3.org/2000/svg">
<path d="M8.96307 5.81534C8.91572 5.29451 8.70502 4.88968 8.33097 4.60085C7.96165 4.30729 7.43371 4.16051 6.74716 4.16051C6.29261 4.16051 5.91383 4.2197 5.6108 4.33807C5.30777 4.45644 5.08049 4.61979 4.92898 4.82812C4.77746 5.03172 4.69934 5.2661 4.6946 5.53125C4.68513 5.74905 4.72775 5.94081 4.82244 6.10653C4.92188 6.27225 5.06392 6.41903 5.24858 6.54688C5.43797 6.66998 5.66525 6.77888 5.9304 6.87358C6.19555 6.96828 6.49384 7.05114 6.82528 7.12216L8.07528 7.40625C8.79498 7.5625 9.42945 7.77083 9.97869 8.03125C10.5327 8.29167 10.9967 8.6018 11.3707 8.96165C11.7495 9.3215 12.036 9.7358 12.2301 10.2045C12.4242 10.6733 12.5237 11.1989 12.5284 11.7812C12.5237 12.6998 12.2917 13.4882 11.8324 14.1463C11.3731 14.8045 10.7126 15.3087 9.85085 15.6591C8.99384 16.0095 7.95928 16.1847 6.74716 16.1847C5.5303 16.1847 4.4697 16.0024 3.56534 15.6378C2.66098 15.2732 1.95786 14.7192 1.45597 13.9759C0.954072 13.2325 0.696023 12.2926 0.681818 11.1562H4.0483C4.0767 11.625 4.20218 12.0156 4.42472 12.3281C4.64725 12.6406 4.95265 12.8774 5.34091 13.0384C5.7339 13.1993 6.18845 13.2798 6.70455 13.2798C7.17803 13.2798 7.58049 13.2159 7.91193 13.0881C8.24811 12.9602 8.50616 12.7827 8.68608 12.5554C8.866 12.3281 8.95833 12.0677 8.96307 11.7741C8.95833 11.4995 8.87311 11.2652 8.70739 11.071C8.54167 10.8722 8.28598 10.7017 7.94034 10.5597C7.59943 10.4129 7.16383 10.2779 6.63352 10.1548L5.11364 9.79972C3.85417 9.51089 2.86222 9.04451 2.13778 8.40057C1.41335 7.75189 1.0535 6.87595 1.05824 5.77273C1.0535 4.87311 1.29498 4.08475 1.78267 3.40767C2.27036 2.73059 2.94508 2.20265 3.80682 1.82386C4.66856 1.44508 5.65104 1.25568 6.75426 1.25568C7.88116 1.25568 8.8589 1.44744 9.6875 1.83097C10.5208 2.20975 11.1671 2.74242 11.6264 3.42898C12.0857 4.11553 12.3201 4.91098 12.3295 5.81534H8.96307ZM25.6832 1.45455V16H22.7003L16.9119 7.60511H16.8196V16H13.304V1.45455H16.3295L22.054 9.83523H22.1747V1.45455H25.6832ZM26.8938 16V1.45455H37.0359V4.30966H30.4094V7.29261H36.5174V10.1548H30.4094V13.1449H37.0359V16H26.8938ZM41.3839 16H37.6055L42.5131 1.45455H47.1935L52.1012 16H48.3228L44.9066 5.11932H44.793L41.3839 16ZM40.8796 10.2756H48.7773V12.946H40.8796V10.2756ZM52.6673 16V1.45455H56.1829V7.60511H56.3746L61.1829 1.45455H65.3235L60.1673 7.94602L65.4158 16H61.2113L57.5891 10.2827L56.1829 12.0582V16H52.6673ZM65.7102 16V1.45455H75.8523V4.30966H69.2259V7.29261H75.3338V10.1548H69.2259V13.1449H75.8523V16H65.7102ZM77.054 16V1.45455H83.0625C84.1515 1.45455 85.0914 1.65104 85.8821 2.04403C86.6776 2.43229 87.2907 2.991 87.7216 3.72017C88.1525 4.4446 88.3679 5.30398 88.3679 6.2983C88.3679 7.30682 88.1477 8.16383 87.7074 8.86932C87.267 9.57008 86.642 10.1051 85.8324 10.4744C85.0227 10.839 84.0639 11.0213 82.956 11.0213H79.1562V8.25142H82.3026C82.8329 8.25142 83.2756 8.18276 83.6307 8.04545C83.9905 7.90341 84.2628 7.69034 84.4474 7.40625C84.6321 7.11742 84.7244 6.74811 84.7244 6.2983C84.7244 5.84848 84.6321 5.4768 84.4474 5.18324C84.2628 4.88494 83.9905 4.66241 83.6307 4.51562C83.2708 4.36411 82.8281 4.28835 82.3026 4.28835H80.5696V16H77.054ZM85.2429 9.35227L88.8651 16H85.0298L81.4787 9.35227H85.2429ZM96.3235 16V1.45455H102.389C103.478 1.45455 104.389 1.60843 105.123 1.91619C105.862 2.22396 106.416 2.65483 106.785 3.20881C107.159 3.76278 107.346 4.40436 107.346 5.13352C107.346 5.6875 107.23 6.18229 106.998 6.6179C106.766 7.04877 106.447 7.40625 106.039 7.69034C105.632 7.97443 105.161 8.1733 104.626 8.28693V8.42898C105.213 8.45739 105.755 8.616 106.252 8.90483C106.754 9.19366 107.157 9.59612 107.46 10.1122C107.763 10.6236 107.914 11.2296 107.914 11.9304C107.914 12.7116 107.716 13.41 107.318 14.0256C106.92 14.6364 106.345 15.1193 105.592 15.4744C104.839 15.8248 103.925 16 102.85 16H96.3235ZM99.8391 13.1662H102.012C102.775 13.1662 103.336 13.0218 103.696 12.733C104.06 12.4441 104.243 12.0417 104.243 11.5256C104.243 11.1515 104.155 10.8295 103.98 10.5597C103.805 10.285 103.556 10.0743 103.234 9.92756C102.912 9.77604 102.526 9.70028 102.076 9.70028H99.8391V13.1662ZM99.8391 7.43466H101.785C102.169 7.43466 102.51 7.37074 102.808 7.2429C103.106 7.11506 103.338 6.9304 103.504 6.68892C103.674 6.44744 103.76 6.15625 103.76 5.81534C103.76 5.32765 103.587 4.94413 103.241 4.66477C102.895 4.38542 102.429 4.24574 101.842 4.24574H99.8391V7.43466ZM111.751 16H107.973L112.88 1.45455H117.561L122.468 16H118.69L115.274 5.11932H115.16L111.751 16ZM111.247 10.2756H119.145V12.946H111.247V10.2756ZM123.034 16V1.45455H129.043C130.132 1.45455 131.072 1.65104 131.863 2.04403C132.658 2.43229 133.271 2.991 133.702 3.72017C134.133 4.4446 134.348 5.30398 134.348 6.2983C134.348 7.30682 134.128 8.16383 133.688 8.86932C133.248 9.57008 132.623 10.1051 131.813 10.4744C131.003 10.839 130.044 11.0213 128.936 11.0213H125.137V8.25142H128.283C128.813 8.25142 129.256 8.18276 129.611 8.04545C129.971 7.90341 130.243 7.69034 130.428 7.40625C130.613 7.11742 130.705 6.74811 130.705 6.2983C130.705 5.84848 130.613 5.4768 130.428 5.18324C130.243 4.88494 129.971 4.66241 129.611 4.51562C129.251 4.36411 128.809 4.28835 128.283 4.28835H126.55V16H123.034ZM131.223 9.35227L134.846 16H131.01L127.459 9.35227H131.223Z" fill="#FFFFFF"/>
<path d="M96.0291 0.772726L91.3416 18.1875H88.38L93.0675 0.772726H96.0291Z" fill="#FF0000"/>
</svg>
