<svg width="24" height="24" viewBox="0 0 24 24" fill="none" xmlns="http://www.w3.org/2000/svg">
<path d="M20.4031 6.72001C20.6323 5.98051 20.7059 5.20153 20.6191 4.43219C20.5322 3.66285 20.287 2.91984 19.8987 2.25001C19.8329 2.13597 19.7382 2.04128 19.6241 1.97545C19.5101 1.90962 19.3807 1.87498 19.249 1.87501C18.3754 1.87318 17.5136 2.0757 16.7322 2.46637C15.9509 2.85705 15.2717 3.42506 14.749 4.12501H12.499C11.9763 3.42506 11.2972 2.85705 10.5158 2.46637C9.73449 2.0757 8.8726 1.87318 7.99902 1.87501C7.86734 1.87498 7.73797 1.90962 7.62393 1.97545C7.50988 2.04128 7.41518 2.13597 7.34934 2.25001C6.96107 2.91984 6.7158 3.66285 6.62899 4.43219C6.54218 5.20153 6.61572 5.98051 6.84496 6.72001C6.38158 7.52881 6.13336 8.44293 6.12402 9.37501V10.125C6.1256 11.394 6.58628 12.6196 7.42098 13.5754C8.25569 14.5313 9.40805 15.1528 10.6653 15.3253C10.1521 15.982 9.87354 16.7916 9.87402 17.625V18.375H7.62402C7.02729 18.375 6.45499 18.138 6.03303 17.716C5.61108 17.294 5.37402 16.7218 5.37402 16.125C5.37402 15.6326 5.27703 15.1449 5.08857 14.6899C4.90012 14.235 4.62389 13.8216 4.27567 13.4734C3.92745 13.1251 3.51406 12.8489 3.05909 12.6605C2.60412 12.472 2.11648 12.375 1.62402 12.375C1.42511 12.375 1.23435 12.454 1.09369 12.5947C0.953041 12.7353 0.874023 12.9261 0.874023 13.125C0.874023 13.3239 0.953041 13.5147 1.09369 13.6553C1.23435 13.796 1.42511 13.875 1.62402 13.875C2.22076 13.875 2.79306 14.1121 3.21501 14.534C3.63697 14.956 3.87402 15.5283 3.87402 16.125C3.87402 17.1196 4.26911 18.0734 4.97237 18.7767C5.67563 19.4799 6.62946 19.875 7.62402 19.875H9.87402V21.375C9.87402 21.5739 9.95304 21.7647 10.0937 21.9053C10.2343 22.046 10.4251 22.125 10.624 22.125C10.8229 22.125 11.0137 22.046 11.1544 21.9053C11.295 21.7647 11.374 21.5739 11.374 21.375V17.625C11.374 17.0283 11.6111 16.456 12.033 16.034C12.455 15.6121 13.0273 15.375 13.624 15.375C14.2208 15.375 14.7931 15.6121 15.215 16.034C15.637 16.456 15.874 17.0283 15.874 17.625V21.375C15.874 21.5739 15.953 21.7647 16.0937 21.9053C16.2343 22.046 16.4251 22.125 16.624 22.125C16.8229 22.125 17.0137 22.046 17.1544 21.9053C17.295 21.7647 17.374 21.5739 17.374 21.375V17.625C17.3745 16.7916 17.096 15.982 16.5828 15.3253C17.84 15.1528 18.9924 14.5313 19.8271 13.5754C20.6618 12.6196 21.1224 11.394 21.124 10.125V9.37501C21.1147 8.44293 20.8665 7.52881 20.4031 6.72001ZM19.624 10.125C19.624 11.1196 19.2289 12.0734 18.5257 12.7767C17.8224 13.4799 16.8686 13.875 15.874 13.875H11.374C10.3795 13.875 9.42563 13.4799 8.72237 12.7767C8.01911 12.0734 7.62402 11.1196 7.62402 10.125V9.37501C7.63322 8.62504 7.85776 7.8935 8.2709 7.26751C8.34791 7.166 8.3978 7.04654 8.41584 6.9204C8.43388 6.79426 8.41949 6.66561 8.37402 6.54657C8.17867 6.04276 8.08465 5.50535 8.09736 4.96513C8.11007 4.42492 8.22926 3.89252 8.44809 3.39845C9.06188 3.46448 9.65295 3.66781 10.1775 3.99336C10.702 4.31891 11.1465 4.75834 11.4781 5.27907C11.5457 5.38474 11.6386 5.47176 11.7485 5.5322C11.8584 5.59263 11.9817 5.62455 12.1071 5.62501H15.14C15.2659 5.62502 15.3897 5.59333 15.5002 5.53287C15.6106 5.47242 15.704 5.38514 15.7718 5.27907C16.1034 4.7583 16.5479 4.31883 17.0724 3.99327C17.5969 3.66771 18.188 3.46441 18.8018 3.39845C19.0204 3.89265 19.1392 4.42511 19.1516 4.96532C19.164 5.50553 19.0697 6.04288 18.874 6.54657C18.8287 6.66447 18.8135 6.79182 18.8299 6.91706C18.8463 7.04231 18.8937 7.16148 18.9678 7.26376C19.385 7.88975 19.6129 8.6228 19.624 9.37501V10.125Z" fill="white"/>
</svg>
