<svg width="20" height="21" viewBox="0 0 20 21" fill="none" xmlns="http://www.w3.org/2000/svg">
<path d="M5 1.5V4.9C5 5.46005 5 5.74008 5.10899 5.95399C5.20487 6.14215 5.35785 6.29513 5.54601 6.39101C5.75992 6.5 6.03995 6.5 6.6 6.5H13.4C13.9601 6.5 14.2401 6.5 14.454 6.39101C14.6422 6.29513 14.7951 6.14215 14.891 5.95399C15 5.74008 15 5.46005 15 4.9V2.5M15 19.5V13.1C15 12.5399 15 12.2599 14.891 12.046C14.7951 11.8578 14.6422 11.7049 14.454 11.609C14.2401 11.5 13.9601 11.5 13.4 11.5H6.6C6.03995 11.5 5.75992 11.5 5.54601 11.609C5.35785 11.7049 5.20487 11.8578 5.10899 12.046C5 12.2599 5 12.5399 5 13.1V19.5M19 7.82548V14.7C19 16.3802 19 17.2202 18.673 17.862C18.3854 18.4265 17.9265 18.8854 17.362 19.173C16.7202 19.5 15.8802 19.5 14.2 19.5H5.8C4.11984 19.5 3.27976 19.5 2.63803 19.173C2.07354 18.8854 1.6146 18.4265 1.32698 17.862C1 17.2202 1 16.3802 1 14.7V6.3C1 4.61984 1 3.77976 1.32698 3.13803C1.6146 2.57354 2.07354 2.1146 2.63803 1.82698C3.27976 1.5 4.11984 1.5 5.8 1.5H12.6745C13.1637 1.5 13.4083 1.5 13.6385 1.55526C13.8425 1.60425 14.0376 1.68506 14.2166 1.79472C14.4184 1.9184 14.5914 2.09135 14.9373 2.43726L18.0627 5.56274C18.4086 5.90865 18.5816 6.0816 18.7053 6.28343C18.8149 6.46237 18.8957 6.65746 18.9447 6.86154C19 7.09171 19 7.3363 19 7.82548Z" stroke="white" stroke-width="2" stroke-linecap="round" stroke-linejoin="round"/>
</svg>
